<?xml version="1.0" standalone="no"?>
<!DOCTYPE svg PUBLIC "-//W3C//DTD SVG 20010904//EN"
 "http://www.w3.org/TR/2001/REC-SVG-20010904/DTD/svg10.dtd">
<svg version="1.0" xmlns="http://www.w3.org/2000/svg"
 width="500.000000pt" height="500.000000pt" viewBox="0 0 500.000000 500.000000"
 preserveAspectRatio="xMidYMid meet">

<g transform="translate(0.000000,500.000000) scale(0.100000,-0.100000)" stroke="none">
<path d="M2215 4428 c-60 -5 -202 -22 -315 -37 -233 -33 -356 -49 -451 -57
-74 -6 -121 -29 -141 -70 -8 -18 -25 -31 -45 -36 -23 -6 -35 -16 -39 -33 -6
-24 -8 -24 -82 -18 -69 5 -80 3 -104 -17 -16 -12 -28 -29 -28 -37 0 -14 -4
-13 -23 4 -26 25 -85 43 -120 36 -14 -3 -40 -20 -57 -38 -29 -30 -32 -38 -28
-78 5 -42 22 -73 90 -162 12 -16 17 -26 10 -21 -15 9 -16 -8 -2 -35 12 -21 10
-22 -42 -10 -34 8 -37 7 -28 -10 7 -11 7 -20 0 -24 -12 -7 -35 39 -44 87 -5
30 -3 41 13 57 18 18 18 31 0 31 -4 0 -15 -7 -23 -16 -32 -31 -13 -134 35
-188 29 -34 41 -84 17 -70 -7 4 -5 -2 5 -13 10 -12 32 -27 48 -33 16 -7 29
-16 29 -21 0 -8 -23 -13 -44 -10 -4 1 -14 -6 -21 -15 -33 -46 -76 27 -78 132
-1 41 -6 69 -11 64 -14 -14 -2 -152 16 -188 13 -25 15 -40 7 -59 -13 -34 -4
-57 32 -87 26 -22 28 -28 17 -46 -11 -17 -10 -25 4 -50 13 -24 14 -35 5 -59
-15 -39 3 -61 52 -61 l36 -1 -28 -17 c-38 -23 -46 -60 -18 -83 12 -10 19 -24
15 -33 -3 -9 2 -20 14 -27 16 -10 18 -17 11 -31 -12 -23 -4 -36 27 -48 16 -6
22 -15 18 -25 -5 -11 -2 -14 10 -9 10 4 18 0 22 -10 9 -25 -4 -32 -29 -17 -20
13 -21 13 -8 -2 7 -10 22 -17 33 -17 19 0 19 -8 1 -56 -2 -6 3 -17 12 -24 8
-7 15 -18 15 -24 0 -6 7 -24 16 -41 14 -27 14 -36 -1 -105 -21 -96 -84 -222
-150 -300 -29 -33 -100 -99 -158 -145 -88 -71 -110 -95 -134 -143 -27 -56 -28
-61 -25 -200 2 -95 -1 -155 -9 -177 -11 -29 -10 -37 2 -52 8 -10 20 -30 27
-45 6 -16 16 -28 22 -28 7 0 9 -8 5 -19 -4 -15 9 -28 66 -65 40 -25 76 -46 81
-46 4 0 8 -6 8 -14 0 -18 14 -27 48 -31 28 -3 152 -43 236 -76 27 -10 55 -19
64 -19 8 0 67 -16 131 -35 64 -19 134 -37 156 -40 42 -6 103 -23 120 -34 6 -3
19 -7 30 -8 91 -14 398 -99 489 -135 27 -11 58 -22 70 -24 31 -7 38 -10 69
-22 16 -7 32 -12 36 -12 4 0 13 -11 19 -24 15 -34 50 -38 202 -22 25 3 51 5
57 5 7 1 12 7 10 14 -1 7 8 12 21 11 12 0 22 2 22 6 0 3 9 6 20 7 12 1 43 16
71 32 27 17 53 31 58 31 4 0 21 11 36 24 15 13 36 23 46 21 11 -2 18 1 16 8
-1 7 6 12 16 12 10 0 23 8 28 18 6 9 14 15 19 12 4 -3 11 2 14 11 3 8 10 13
15 9 5 -3 17 7 26 22 17 28 75 80 75 68 0 -4 -17 -23 -37 -42 l-38 -35 42 26
c53 33 59 32 66 -1 3 -18 0 -32 -11 -40 -16 -12 -16 -13 0 -7 11 4 35 -13 75
-51 32 -31 51 -55 43 -53 -8 2 -15 -2 -15 -7 0 -6 17 -10 38 -10 28 0 37 -4
37 -17 0 -9 5 -20 10 -23 6 -4 8 -11 5 -16 -4 -5 -2 -9 4 -9 5 0 11 6 14 13 3
9 12 6 33 -8 16 -11 64 -29 107 -39 42 -11 77 -23 77 -28 0 -5 15 -7 33 -3 30
7 31 6 12 -9 -18 -14 -15 -14 35 0 30 9 57 18 59 20 2 2 17 -4 34 -12 29 -16
53 -16 228 0 70 6 174 29 196 43 11 8 32 15 45 17 42 5 78 18 73 27 -3 4 8 6
25 4 20 -2 36 2 48 14 9 10 39 28 66 40 28 12 66 34 85 49 20 15 38 27 41 28
25 4 60 26 55 34 -4 6 -1 9 7 8 7 -2 12 3 10 10 -1 8 2 11 8 7 5 -3 13 2 17
12 3 10 20 34 37 54 64 73 76 89 96 126 11 21 32 53 45 71 13 19 27 55 31 80
3 26 17 63 30 82 12 19 27 54 32 78 8 36 7 46 -10 67 -19 24 -19 27 -4 44 19
21 20 44 4 74 -6 12 -10 43 -9 69 2 39 -2 52 -23 73 -14 14 -32 25 -39 25 -17
0 -33 33 -19 38 5 1 -9 22 -32 46 -71 74 -193 107 -254 69 -26 -17 -27 -17
-12 2 8 11 23 30 34 43 l19 22 -22 0 c-33 0 -60 -17 -81 -53 -11 -18 -20 -26
-20 -19 0 28 31 78 58 94 l27 17 -33 1 c-18 0 -31 -4 -28 -9 6 -10 -10 -25
-37 -34 -15 -6 -16 -4 -7 16 9 18 7 18 -14 -5 -14 -16 -27 -24 -30 -19 -3 4 3
16 14 26 26 23 25 31 -4 50 -22 15 -27 15 -55 1 -19 -10 -32 -12 -36 -6 -13
21 -115 2 -115 -22 0 -5 -9 -4 -19 2 -52 27 -69 8 -72 -80 l-2 -45 -6 40 c-6
38 -7 39 -16 15 l-9 -25 -7 25 c-11 40 -10 58 6 74 9 9 11 17 5 21 -13 8 -30
-3 -30 -20 0 -17 -41 -88 -47 -81 -3 3 -2 24 2 47 7 40 9 41 21 24 8 -10 14
-14 14 -8 0 17 -28 36 -45 29 -8 -3 -15 -9 -14 -13 3 -21 -4 -66 -8 -50 -2 9
-9 14 -15 11 -8 -5 -9 8 -6 40 6 46 5 48 -27 63 -21 10 -40 13 -52 8 -10 -5
-21 -8 -24 -7 -10 2 -36 -130 -31 -151 1 -5 -3 -5 -9 -1 -11 7 -7 96 6 140 4
12 1 10 -9 -6 -10 -16 -15 -19 -16 -10 0 13 -1 13 -11 0 -8 -12 -10 -9 -6 13
3 21 0 27 -14 27 -10 0 -21 -5 -24 -10 -4 -6 -10 -8 -15 -5 -4 3 -10 -5 -14
-18 -5 -21 -6 -21 -23 -4 -14 13 -15 21 -7 35 6 9 17 17 25 17 8 0 15 4 17 8
1 4 0 7 -3 7 -3 0 -14 0 -25 0 -12 0 -26 -13 -39 -37 l-19 -38 -7 27 c-4 16
-12 25 -17 22 -6 -4 -5 3 1 15 8 14 8 21 1 21 -6 0 -15 11 -20 26 -12 30 -109
79 -139 69 -16 -5 -23 3 -39 47 -23 62 -47 178 -61 297 -14 109 -15 461 -2
474 6 6 18 -8 35 -41 54 -107 217 -210 377 -238 135 -23 249 -16 323 20 71 35
113 85 171 204 53 111 72 179 81 295 l7 86 38 -20 c30 -15 47 -34 71 -82 28
-53 32 -72 32 -137 0 -41 -4 -85 -8 -97 -5 -13 -4 -23 1 -23 16 0 33 64 33
123 0 66 -30 153 -68 199 -40 48 -92 67 -168 61 -35 -2 -64 -1 -64 4 0 21 28
33 80 33 64 0 109 -11 136 -33 10 -9 35 -29 54 -44 19 -16 36 -35 38 -43 2 -8
10 -28 18 -44 8 -16 14 -47 14 -68 0 -26 4 -37 11 -32 16 10 4 94 -20 141 -38
74 -106 128 -184 147 -15 4 -25 11 -22 15 8 14 -23 147 -44 190 -16 31 -32 43
-90 69 -39 18 -75 32 -81 32 -5 0 -70 25 -145 55 -393 158 -651 234 -970 284
-248 39 -412 47 -630 29z m360 -28 c402 -26 676 -92 1160 -280 88 -34 196 -75
240 -92 113 -43 116 -47 58 -76 -26 -13 -58 -33 -70 -44 -13 -12 -27 -17 -34
-12 -9 5 -10 2 -4 -12 26 -62 44 -113 50 -142 l7 -33 -46 26 c-49 27 -71 33
-40 11 21 -16 16 -26 -13 -30 -13 -2 -17 -10 -15 -28 2 -19 -3 -27 -18 -31
-11 -3 -20 -11 -20 -17 0 -9 4 -9 17 1 14 12 14 10 -1 -13 -10 -16 -15 -28
-12 -28 15 0 -16 -40 -32 -41 -15 0 -15 -1 -1 -7 12 -5 14 -13 8 -29 -5 -13
-13 -23 -19 -23 -19 0 -79 28 -117 56 l-38 26 30 -27 c17 -15 51 -37 77 -49
46 -22 53 -36 18 -36 -8 0 -33 9 -55 20 -21 11 -41 18 -43 15 -3 -2 18 -15 46
-28 38 -18 48 -27 42 -38 -8 -11 -15 -12 -42 -2 l-33 12 24 -19 c17 -14 19
-20 8 -20 -9 0 -27 -14 -40 -31 -22 -29 -28 -31 -53 -22 -50 18 -157 92 -217
151 -57 55 -146 187 -134 198 3 3 13 -10 22 -29 9 -19 26 -43 38 -54 l21 -18
-21 30 c-15 22 -22 54 -27 117 -4 49 -14 111 -22 139 -11 35 -12 54 -5 58 6 4
8 17 4 30 -4 17 -8 19 -14 9 -7 -10 -9 -9 -9 5 0 20 -16 23 -23 5 -4 -8 -6 -7
-6 3 -1 23 -41 33 -42 11 0 -14 -2 -13 -8 2 -4 11 -14 21 -22 22 -8 2 -72 19
-144 38 -121 33 -131 34 -143 18 -7 -9 -16 -29 -19 -44 -5 -25 -23 -40 -23
-20 0 4 -30 8 -68 8 -37 1 -110 8 -162 17 -52 9 -129 19 -170 22 -41 4 -88 9
-105 12 -16 3 -42 6 -57 7 -15 1 -30 5 -33 8 -4 4 -13 4 -21 1 -8 -3 -14 1
-14 8 0 11 -2 11 -10 -1 -10 -16 -12 -12 -25 44 -4 17 -9 25 -13 19 -5 -8 -32
-8 -100 0 -52 7 -90 15 -86 20 4 4 -7 7 -24 7 -19 0 -32 -5 -32 -12 0 -9 -3
-10 -8 -2 -4 6 -15 11 -24 11 -15 0 -15 -3 -2 -21 8 -11 14 -25 14 -31 0 -5
-5 -2 -11 8 -5 9 -14 17 -19 17 -6 0 -11 -8 -11 -17 -1 -17 -2 -17 -6 0 -2 9
-8 17 -13 17 -5 0 -6 7 -3 17 4 10 2 14 -4 10 -7 -4 -9 -25 -6 -50 l4 -42 -23
30 c-30 39 -110 115 -122 115 -5 0 -2 -8 5 -17 13 -16 12 -17 -3 -4 -10 7 -15
17 -12 22 3 5 -12 17 -32 25 -31 13 -58 15 -142 9 -68 -5 -102 -4 -98 3 7 12
38 18 206 37 74 8 207 26 295 40 278 44 429 52 690 35z m-957 -135 c12 -3 22
-10 22 -15 0 -6 15 -34 34 -63 26 -39 36 -67 40 -115 7 -65 1 -95 -15 -71 -7
11 -9 11 -9 -2 0 -9 9 -24 20 -34 11 -10 20 -23 20 -30 0 -25 -362 -66 -445
-51 l-37 7 5 97 c8 149 18 183 76 252 l28 35 119 -2 c66 -1 129 -5 142 -8z
m169 -152 c25 -43 37 -56 27 -29 -3 8 -1 23 4 33 9 16 11 14 18 -12 l7 -29 9
24 c6 17 11 21 17 12 4 -7 14 5 25 33 31 74 34 41 5 -49 -41 -127 -39 -125
-84 -50 -22 36 -60 91 -84 122 l-44 57 37 -35 c21 -19 49 -54 63 -77z m-529
72 c-11 -25 -28 -25 -28 0 0 12 13 22 32 24 4 1 3 -10 -4 -24z m-29 -37 c8 -1
5 -7 -9 -18 -17 -13 -32 -15 -73 -9 -78 11 -115 11 -97 -1 13 -8 12 -10 -3
-10 -11 0 -15 -4 -11 -12 4 -6 3 -8 -4 -4 -15 9 -21 -15 -10 -44 8 -21 5 -20
-25 11 -40 41 -93 69 -134 70 -27 0 -28 0 -4 10 31 12 91 -4 125 -36 14 -13
26 -20 26 -15 0 5 12 23 27 41 l27 32 75 -7 c42 -4 82 -8 90 -8z m810 2 c71
-10 79 -14 63 -33 -6 -7 -18 -56 -27 -108 -8 -52 -20 -119 -25 -149 -6 -30
-13 -95 -16 -145 -6 -87 -5 -91 18 -113 l25 -23 33 27 c26 23 35 26 51 16 10
-6 49 -18 86 -27 84 -18 390 -65 441 -66 l37 -1 -42 -11 c-24 -5 -43 -14 -43
-18 0 -13 57 -11 82 2 27 15 38 1 13 -18 -11 -8 -14 -13 -6 -11 8 2 18 11 22
19 48 91 62 155 94 409 19 147 28 180 47 180 19 -1 97 -18 141 -32 41 -12 44
-18 23 -51 -28 -43 -37 -145 -46 -527 -6 -212 -10 -407 -10 -435 0 -27 0 -66
0 -85 0 -28 2 -32 10 -20 9 11 10 4 7 -30 -2 -25 0 -100 5 -168 8 -105 7 -125
-7 -138 -9 -10 -15 -34 -15 -64 0 -27 -5 -52 -11 -55 -6 -4 -7 -19 -4 -36 4
-16 2 -29 -3 -29 -5 0 -7 -11 -5 -24 3 -13 -2 -49 -11 -79 -20 -68 -20 -83 0
-37 12 27 17 32 24 20 5 -8 10 -10 10 -4 0 5 -4 14 -9 20 -6 5 -2 51 10 118
27 148 42 168 34 46 -3 -58 0 -138 9 -205 11 -93 11 -111 0 -118 -16 -9 -19
-37 -3 -37 5 0 7 5 3 12 -4 7 -3 8 5 4 9 -6 9 -11 -1 -24 -10 -12 -10 -14 0
-8 7 4 12 1 12 -8 0 -22 13 -20 41 5 l24 21 -27 -16 c-24 -14 -26 -14 -23 2 1
9 8 16 14 14 6 -1 11 2 11 8 0 5 9 10 20 10 18 0 136 80 197 133 20 18 21 22
8 58 -10 27 -11 40 -3 45 6 4 8 3 5 -2 -9 -16 4 -29 61 -59 28 -15 52 -32 52
-36 0 -27 -205 -236 -375 -381 -82 -70 -256 -198 -269 -198 -3 0 -43 -26 -88
-58 -109 -77 -181 -117 -275 -153 -60 -23 -69 -28 -38 -24 22 3 49 8 60 11 11
3 0 -6 -23 -20 -24 -14 -58 -30 -75 -34 l-32 -9 32 -7 c18 -4 37 -5 43 -1 6 3
7 0 4 -9 -4 -11 -21 -17 -53 -18 -36 -1 -39 -2 -13 -5 34 -5 35 -6 26 -40 -4
-14 -15 -24 -28 -25 -11 0 -1 -4 24 -8 l45 -7 -60 -3 c-37 -2 -48 -5 -30 -7
29 -4 61 -23 38 -23 -6 0 -8 -11 -5 -25 4 -21 0 -25 -19 -26 -21 -1 -21 -2 -4
-6 11 -3 25 -10 30 -15 7 -7 2 -8 -15 -4 -25 6 -25 6 -2 -5 36 -19 26 -29 -30
-30 -29 -1 -41 -4 -25 -6 15 -2 27 -8 27 -13 0 -5 10 -11 23 -13 12 -2 2 -5
-23 -6 -43 -1 -288 42 -415 72 -135 33 -486 134 -600 173 l-40 14 47 -5 c26
-4 80 -18 120 -32 40 -14 85 -26 100 -27 14 0 24 -4 21 -8 -2 -5 6 -9 19 -9
13 -1 38 -3 57 -5 35 -2 32 12 -5 21 -256 64 -303 77 -534 160 -233 84 -306
114 -423 176 -87 45 -98 54 -93 72 3 12 6 72 6 133 l0 110 28 -2 c15 -1 57
-16 92 -34 134 -68 511 -197 730 -249 192 -47 300 -79 300 -91 0 -4 24 -14 53
-21 28 -7 54 -14 57 -14 3 -1 29 -5 57 -10 29 -4 51 -11 48 -14 -2 -4 15 -6
38 -4 22 2 44 8 48 14 4 7 12 8 18 5 18 -12 209 -46 255 -46 42 0 168 55 236
103 45 32 9 17 -87 -34 l-95 -52 -92 6 c-50 3 -143 17 -206 31 -137 30 -220
40 -220 26 0 -13 -37 -13 -44 -1 -4 5 0 12 6 15 7 3 2 3 -11 0 -14 -4 -21 -2
-17 4 3 5 -7 12 -22 15 -52 10 -82 17 -109 28 -16 6 -104 30 -198 54 -316 81
-654 203 -797 288 -38 23 -54 39 -56 57 -5 41 48 109 149 195 122 102 230 231
258 309 6 14 10 1 14 -41 8 -75 42 -200 73 -272 13 -29 24 -60 24 -68 0 -8 4
-12 9 -9 5 3 27 -18 48 -47 87 -113 192 -202 288 -241 55 -22 56 -23 29 -30
-22 -6 -25 -9 -13 -17 7 -5 19 -9 24 -9 6 0 4 4 -3 9 -10 6 -7 10 12 13 14 3
23 2 21 -2 -10 -16 138 -34 275 -34 121 1 157 5 212 22 81 26 75 26 81 2 4
-16 14 -20 54 -21 l48 -1 -53 -12 c-63 -13 -59 -26 9 -26 39 0 56 6 92 34 25
19 59 42 75 50 33 17 198 179 214 211 6 11 -13 -6 -42 -38 -29 -33 -63 -62
-74 -67 -12 -4 -21 -15 -21 -25 0 -10 -5 -20 -12 -22 -30 -10 1 44 52 89 48
43 110 131 179 254 11 19 23 34 28 34 10 0 -39 -99 -76 -153 -28 -41 -32 -52
-16 -42 15 9 71 100 105 170 16 33 37 71 46 85 9 14 28 73 41 130 19 86 23
132 22 255 -1 178 -17 254 -76 354 -66 111 -99 148 -198 218 -193 136 -295
170 -489 160 -102 -5 -130 -10 -236 -47 -66 -23 -129 -44 -140 -48 -11 -3 -28
-13 -38 -23 -10 -9 -44 -34 -75 -56 -100 -68 -362 -354 -362 -395 0 -5 -9 -22
-19 -37 -22 -30 -61 -141 -61 -168 1 -10 11 9 24 42 58 148 130 254 278 403
102 102 159 144 214 158 16 4 58 22 94 39 36 18 79 36 95 40 17 4 25 9 18 12
-6 2 -51 -12 -98 -32 -48 -20 -89 -34 -91 -32 -8 8 161 79 230 96 92 24 216
36 216 22 0 -6 -17 -12 -37 -12 -21 -1 7 -7 62 -14 55 -6 120 -18 145 -25 l45
-13 -47 -8 c-54 -8 -119 -50 -144 -94 -10 -16 -22 -33 -27 -36 -16 -11 2 -76
31 -111 23 -27 24 -31 7 -24 -59 25 -270 38 -284 19 -11 -14 -121 -63 -121
-53 0 5 4 11 9 14 16 10 44 114 37 140 -13 53 -99 71 -178 37 -63 -27 -82 -78
-58 -160 5 -19 8 -36 6 -38 -2 -2 -16 3 -32 12 -16 8 -43 15 -59 15 -38 0
-100 -41 -120 -80 -19 -38 -19 -109 1 -138 14 -21 14 -22 -11 -22 -101 0 -205
-134 -175 -225 11 -34 56 -75 81 -75 9 0 8 -4 -3 -12 -76 -60 -75 -217 2 -258
27 -14 77 -12 109 5 16 8 31 12 34 9 12 -13 42 53 57 127 16 75 16 80 -1 108
-27 44 -53 54 -119 47 -56 -7 -110 6 -110 26 0 10 92 98 103 98 4 0 21 -7 36
-15 16 -8 32 -11 35 -7 4 3 4 -1 0 -11 -4 -12 -1 -17 10 -17 9 0 16 -5 16 -10
0 -6 -19 0 -42 14 -36 20 -47 22 -68 13 -25 -10 -25 -10 9 -16 44 -8 54 -31
13 -31 -17 0 -37 -3 -46 -6 -31 -12 -15 -20 38 -20 30 1 52 5 48 10 -3 5 -1 7
4 4 22 -14 53 12 64 54 32 117 -36 186 -135 138 -24 -12 -56 -35 -70 -52 -14
-16 -25 -25 -25 -18 0 6 18 30 39 53 38 41 42 42 101 42 55 0 64 -3 86 -28 15
-18 24 -23 24 -13 0 8 -14 26 -30 40 l-30 25 49 -6 c38 -4 57 -2 75 11 l25 16
-24 -35 c-41 -61 -50 -103 -50 -230 0 -115 1 -122 30 -174 36 -65 123 -134
198 -156 210 -62 474 69 586 293 91 181 89 291 -5 428 -21 31 -51 62 -66 70
-16 8 -28 17 -28 20 0 2 9 0 20 -6 38 -20 91 -1 146 54 82 83 85 163 7 204
-54 29 -104 9 -181 -71 -60 -65 -71 -52 -12 15 64 74 136 96 200 63 38 -20 39
-3 3 23 -35 23 -77 40 -145 57 -52 14 -53 14 -8 8 93 -11 269 -104 364 -191
36 -34 108 -183 135 -282 30 -106 28 -232 -3 -342 -34 -115 -65 -195 -82 -213
-9 -8 -13 -15 -9 -15 3 0 -9 -28 -26 -62 -22 -42 -65 -95 -129 -158 -91 -92
-197 -173 -212 -164 -4 3 -28 43 -54 90 -52 96 -79 116 -120 89 -36 -23 -32
-83 11 -173 l34 -72 -53 -15 c-131 -38 -286 -45 -414 -19 -83 17 -217 68 -230
88 -4 7 -29 25 -57 41 -80 46 -140 109 -184 194 -61 117 -85 215 -84 341 1
127 30 229 103 361 103 188 374 451 559 543 103 52 131 73 131 101 0 53 37
258 98 538 19 87 12 83 121 67z m-1118 -79 c20 -12 41 -33 47 -47 16 -34 15
-36 -8 -24 -16 9 -20 8 -20 -6 0 -13 -3 -14 -15 -4 -8 7 -15 19 -15 28 0 8 -3
12 -7 9 -3 -4 -15 1 -25 10 -11 9 -3 -9 17 -42 19 -32 35 -64 35 -71 0 -18
-30 -26 -36 -9 -4 8 -10 13 -14 10 -15 -9 -72 93 -73 131 -2 58 34 63 114 15z
m197 -38 c-10 -2 -26 -2 -35 0 -10 3 -2 5 17 5 19 0 27 -2 18 -5z m105 -75 c2
-29 1 -61 -4 -70 -11 -20 4 -95 26 -138 79 -153 405 -191 538 -63 l39 38 -6
-45 c-3 -25 -8 -70 -11 -101 l-6 -56 -107 -58 c-117 -63 -139 -78 -254 -173
-68 -55 -237 -236 -279 -299 -14 -21 -15 -20 -15 25 1 42 -2 47 -22 50 -17 3
-22 8 -18 19 9 23 -3 53 -20 53 -11 0 -13 6 -9 19 8 25 -21 54 -47 45 -19 -6
-19 -5 -3 27 16 31 16 33 0 45 -12 9 -16 22 -12 39 3 17 0 28 -9 32 -10 4 -11
10 -4 23 15 29 12 51 -9 57 -16 4 -17 9 -8 32 13 34 4 61 -23 68 -15 4 -17 9
-10 23 16 31 12 61 -10 67 -22 6 -26 18 -10 28 16 10 12 43 -7 54 -15 9 -16
10 -2 11 15 0 39 38 39 62 0 6 -7 20 -17 30 -9 11 -11 18 -5 18 7 0 12 9 12
20 0 11 5 21 10 21 6 1 14 2 20 3 17 2 39 41 40 71 0 21 3 26 9 16 6 -10 12
-4 22 23 l13 36 77 0 76 0 6 -52z m2012 -43 c17 -14 26 -55 12 -55 -33 2 -112
29 -115 39 -6 17 19 62 30 55 4 -3 8 0 8 7 0 8 4 8 15 -1 12 -10 15 -9 16 6 0
13 4 9 11 -11 6 -16 17 -34 23 -40z m-682 14 c139 -22 256 -45 262 -50 13 -13
-20 -231 -45 -286 l-20 -46 -69 7 c-37 3 -112 15 -166 26 -53 11 -108 20 -122
20 -14 0 -37 8 -51 18 -15 9 -36 22 -47 28 -11 6 -22 22 -24 35 -6 44 11 289
21 289 5 0 123 -18 261 -41z m684 9 c-3 -8 -6 -5 -6 6 -1 11 2 17 5 13 3 -3 4
-12 1 -19z m-2240 -10 c-3 -8 -6 -5 -6 6 -1 11 2 17 5 13 3 -3 4 -12 1 -19z
m3106 -1 c12 -19 57 -147 57 -163 0 -2 -13 -4 -30 -4 -24 0 -30 4 -30 21 0 38
-23 99 -37 99 -19 0 -16 13 7 28 12 7 18 17 14 23 -3 6 -11 3 -19 -8 -7 -10
-17 -15 -21 -10 -7 7 23 36 37 37 4 0 14 -10 22 -23z m-127 -75 c-9 -8 -26 10
-26 26 1 15 2 15 15 -2 8 -11 13 -21 11 -24z m-2550 -1 c-35 -5 -37 -7 -23
-20 23 -18 21 -34 -2 -28 -19 5 -23 -15 -6 -30 4 -4 5 -2 1 5 -8 14 0 14 29 2
l20 -8 -20 -8 c-30 -13 -29 -33 2 -47 16 -6 34 -18 42 -25 17 -17 55 -32 101
-42 28 -6 22 -8 -35 -9 -38 0 -88 4 -109 9 -79 18 -168 106 -181 180 l-6 35
113 -4 c73 -3 99 -7 74 -10z m107 12 c-7 -2 -21 -2 -30 0 -10 3 -4 5 12 5 17
0 24 -2 18 -5z m-616 -19 c-3 -3 -12 -4 -19 -1 -8 3 -5 6 6 6 11 1 17 -2 13
-5z m2327 -4 c41 -15 36 -77 -10 -146 -19 -30 -37 -54 -40 -54 -6 0 4 149 12
188 5 25 4 25 38 12z m755 -41 c14 -40 14 -52 1 -44 -5 3 -10 16 -10 29 0 12
-5 27 -12 34 -8 8 -8 12 -1 12 6 0 16 -14 22 -31z m91 -32 c0 -7 -9 -18 -20
-25 -17 -10 -20 -10 -20 4 0 8 5 12 10 9 6 -3 13 1 16 9 7 19 14 21 14 3z
m-2620 -24 c-8 -3 -20 -9 -25 -14 -6 -4 -17 -3 -25 3 -12 8 -12 9 2 4 10 -3
20 -1 23 4 4 6 14 10 23 9 14 0 14 -2 2 -6z m2548 -28 c-3 -3 -9 2 -12 12 -6
14 -5 15 5 6 7 -7 10 -15 7 -18z m16 -54 c10 -19 12 -37 7 -57 -6 -20 -10 -24
-14 -14 -6 16 -14 100 -10 100 1 0 9 -13 17 -29z m-760 -29 c56 -111 183 -227
321 -293 111 -54 202 -71 353 -67 78 2 121 -1 119 -7 -2 -5 -12 -11 -23 -11
-225 -17 -280 -16 -330 5 -28 12 -55 21 -60 20 -22 -4 -35 2 -29 14 4 6 -1 3
-9 -7 -12 -15 -16 -16 -16 -5 0 12 -2 12 -9 0 -7 -11 -10 -11 -18 3 -7 13 -14
12 -51 -13 -23 -15 -39 -31 -35 -36 5 -4 0 -5 -9 -2 -26 9 -22 -7 6 -28 35
-27 23 -49 -15 -29 -16 8 -29 12 -29 9 0 -2 17 -13 38 -24 29 -15 33 -21 20
-26 -34 -13 -190 85 -237 150 -45 63 -61 116 -61 204 0 82 26 191 45 191 3 0
16 -22 29 -48z m-1069 28 c-11 -5 -27 -9 -35 -9 -9 0 -8 4 5 9 11 5 27 9 35 9
9 0 8 -4 -5 -9z m1955 -25 c0 -19 -4 -35 -10 -35 -5 0 -10 9 -10 21 0 13 -8
23 -22 27 -21 5 -21 6 -2 13 36 14 44 10 44 -26z m-2070 -10 c-14 -8 -29 -14
-35 -14 -5 0 1 6 15 14 14 8 30 14 35 14 6 0 -1 -6 -15 -14z m2055 -102 c-8
-62 -45 -164 -73 -200 -12 -16 -33 -24 -72 -29 l-55 -7 18 24 c10 13 23 36 30
52 12 28 32 36 39 15 13 -37 86 57 94 121 8 57 14 81 20 81 4 0 3 -26 -1 -57z
m-3278 -16 c3 -4 -7 -7 -23 -7 -19 0 -25 -3 -16 -9 10 -6 10 -10 -1 -20 -18
-14 -32 1 -40 46 l-6 32 39 -18 c22 -10 43 -21 47 -24z m2300 -54 c-2 -16 -4
-3 -4 27 0 30 2 43 4 28 2 -16 2 -40 0 -55z m-2210 23 c-3 -8 -14 -13 -24 -11
-10 2 -22 4 -26 4 -5 1 -5 6 -2 12 4 6 13 8 21 5 7 -3 16 0 20 6 5 7 2 8 -6 3
-9 -6 -11 -4 -5 4 10 17 30 -3 22 -23z m-97 -78 c0 -5 4 -6 10 -3 5 3 17 2 26
-3 14 -8 14 -11 -7 -26 -29 -20 -36 -20 -55 -2 -14 15 -18 38 -8 49 8 8 34 -3
34 -15z m130 -95 c0 -10 -6 -13 -16 -9 -11 4 -22 -1 -31 -14 -17 -25 -74 -24
-80 0 -3 9 -1 11 4 5 16 -20 61 -11 83 18 22 28 40 28 40 0z m-69 4 c2 -23 -8
-29 -30 -18 -17 10 -25 10 -37 0 -18 -15 -31 -4 -16 13 11 14 81 18 83 5z
m2652 -40 c3 -8 -5 -13 -24 -13 -16 -1 -26 3 -23 8 3 5 12 7 20 4 8 -3 14 -1
14 4 0 14 7 12 13 -3z m-1253 -37 c0 -37 -19 -77 -50 -105 -20 -18 -23 -18
-33 -4 -14 19 -53 33 -67 24 -8 -5 -8 -11 0 -20 9 -11 7 -12 -10 -8 -18 5 -21
2 -18 -13 4 -20 30 -29 56 -19 14 5 14 7 2 15 -8 6 -10 10 -5 10 6 0 16 -4 24
-9 11 -7 8 -13 -13 -26 -24 -16 -31 -16 -68 -4 -22 7 -36 15 -30 17 6 2 8 10
5 18 -8 20 59 82 132 121 33 18 63 33 68 33 4 0 7 -14 7 -30z m1240 -16 c10
-10 10 -14 2 -14 -7 0 -12 5 -12 10 0 6 -9 10 -19 10 -11 0 -23 5 -27 11 -9
15 36 1 56 -17z m-2640 2 c0 -2 -7 -7 -16 -10 -8 -3 -12 -2 -9 4 6 10 25 14
25 6z m687 -27 c15 -24 14 -29 -1 -59 -20 -40 -20 -37 4 -43 21 -5 28 -41 10
-52 -5 -3 -10 1 -10 11 0 11 -6 15 -19 11 -14 -3 -18 -1 -14 10 4 11 1 14 -8
11 -18 -6 -25 -48 -8 -48 7 0 10 -2 7 -5 -8 -9 -38 6 -38 19 0 6 13 28 30 48
29 36 30 37 15 78 -18 52 -18 52 1 48 8 -2 22 -15 31 -29z m2399 3 c-18 -16
-18 -16 -6 6 6 13 14 21 18 18 3 -4 -2 -14 -12 -24z m-1371 -137 c76 -148 94
-334 49 -510 -16 -61 -83 -217 -96 -223 -5 -2 -23 -31 -42 -65 -19 -34 -54
-80 -78 -103 -69 -65 -77 -63 -20 5 29 35 64 83 78 107 14 24 30 44 36 44 5 0
6 5 2 12 -4 7 -3 8 4 4 7 -4 12 -1 12 9 0 9 10 35 21 58 12 23 21 43 20 45 -8
8 12 61 21 56 6 -4 8 2 3 16 -5 17 -4 21 6 15 9 -6 11 -4 6 8 -3 9 1 37 10 62
12 36 14 75 11 173 -4 116 -8 135 -40 217 -20 50 -50 120 -68 155 -29 60 -29
62 -6 35 13 -16 45 -70 71 -120z m-1588 109 c3 -9 -3 -24 -17 -37 l-23 -22 17
25 c23 34 20 47 -5 24 -22 -19 -22 -19 -10 4 14 26 29 29 38 6z m2917 -15
c-28 -33 -98 -60 -144 -57 -22 1 -40 6 -40 10 0 7 11 9 80 13 29 1 96 30 105
45 3 5 9 10 12 10 3 0 -2 -10 -13 -21z m-3019 -29 c-3 -5 -14 -10 -23 -10 -15
0 -15 2 -2 10 20 13 33 13 25 0z m126 -36 c-16 -20 -21 -23 -21 -10 0 29 21
59 32 48 7 -7 4 -19 -11 -38z m2569 22 c0 -3 -4 -8 -10 -11 -5 -3 -10 -1 -10
4 0 6 5 11 10 11 6 0 10 -2 10 -4z m-2607 -41 c-3 -9 -8 -14 -10 -11 -3 3 -2
9 2 15 9 16 15 13 8 -4z m1036 -17 c70 -30 104 -61 139 -125 42 -80 55 -163
36 -242 -28 -120 -105 -243 -188 -301 -36 -24 -43 -26 -42 -12 0 9 -5 16 -12
14 -10 -2 -10 2 -2 19 6 11 13 30 15 41 6 29 10 31 28 13 21 -20 51 -20 43 0
-5 13 -2 14 15 4 19 -10 20 -9 13 13 -4 12 -14 28 -22 34 -13 9 -13 12 2 17 9
4 16 15 16 26 0 11 5 32 12 48 19 48 9 158 -22 235 -16 39 -37 79 -47 90 -29
33 -102 59 -178 65 -60 5 -79 2 -130 -20 -41 -17 -64 -22 -72 -15 -7 5 -18 6
-25 2 -10 -6 -9 -3 1 9 14 18 12 21 -13 11 -23 -9 -20 -43 4 -52 19 -7 19 -9
-12 -32 -21 -15 -33 -19 -36 -12 -7 23 -24 12 -20 -13 3 -14 1 -25 -4 -25 -5
0 -6 -6 -2 -12 6 -10 5 -10 -8 0 -12 10 -18 10 -27 -2 -10 -11 -8 -17 10 -29
19 -14 20 -19 10 -48 -18 -53 -14 -164 8 -210 11 -22 17 -47 14 -55 -4 -11 10
-20 20 -12 1 1 23 -12 49 -30 26 -18 51 -32 57 -32 6 0 11 -4 11 -9 0 -5 -9
-7 -19 -4 -13 3 -21 -2 -26 -16 -3 -12 -10 -19 -14 -17 -4 3 -8 -4 -8 -15 -1
-16 1 -18 11 -10 10 8 11 4 8 -20 -4 -25 -8 -29 -26 -23 -67 20 -82 54 -42
101 36 44 19 71 -21 33 -16 -14 -21 -29 -18 -59 1 -21 6 -44 10 -51 15 -24
101 -54 175 -61 l75 -7 -85 2 c-72 1 -94 6 -144 31 -68 34 -131 94 -153 145
-21 47 -28 192 -14 261 7 31 27 82 45 112 31 51 33 61 32 135 l-1 79 31 -23
c38 -29 56 -32 26 -4 -28 26 -28 32 1 21 15 -6 34 -4 56 5 49 21 59 17 24 -8
-39 -30 -83 -82 -83 -99 1 -8 6 -4 13 8 31 55 174 136 272 153 69 12 180 2
234 -22z m-1087 -5 c-6 -2 -10 -9 -6 -14 3 -5 -4 -9 -15 -9 -12 0 -21 4 -21 9
0 11 18 19 40 19 10 0 11 -1 2 -5z m408 -15 c-19 -5 -46 -19 -59 -31 -16 -15
-22 -17 -19 -7 5 18 66 50 93 49 12 0 5 -5 -15 -11z m-275 -58 c-9 -17 -27
-36 -40 -42 -14 -6 -25 -16 -25 -22 0 -6 -4 -5 -9 2 -6 11 -12 10 -26 -5 -13
-13 -17 -14 -13 -3 2 8 23 24 46 35 23 11 49 30 57 43 23 32 28 27 10 -8z
m323 -35 c0 -25 -4 -43 -8 -40 -5 3 -7 -4 -5 -16 3 -13 10 -26 16 -29 13 -8
-23 -20 -63 -20 -22 0 -28 5 -28 20 0 45 52 130 79 130 5 0 9 -20 9 -45z m510
7 c48 -34 67 -85 67 -177 0 -103 -37 -192 -98 -236 -56 -41 -65 -36 -17 8 23
20 46 46 52 57 8 15 1 12 -23 -10 -19 -18 -45 -37 -59 -43 -21 -10 -23 -10
-10 1 8 7 24 25 35 38 l20 25 -27 -23 c-22 -20 -38 -24 -100 -25 -40 -1 -86 1
-103 6 -26 6 -24 4 10 -14 37 -19 25 -21 -18 -4 -15 6 -17 3 -15 -16 9 -65 64
-92 173 -84 44 3 52 2 30 -4 -55 -16 -148 -12 -190 8 -85 38 -120 110 -113
230 7 122 56 198 168 261 49 28 62 31 121 27 47 -3 76 -10 97 -25z m95 -30
c27 -26 48 -78 46 -117 -1 -16 -2 -15 -8 5 -11 36 -39 88 -52 96 -7 4 -7 -2 1
-17 9 -18 9 -21 1 -13 -7 6 -14 20 -16 30 -1 11 -7 18 -12 17 -5 -1 -15 7 -22
19 -11 18 -10 19 11 13 13 -4 35 -19 51 -33z m-925 8 c-7 -11 -16 -20 -21 -20
-4 0 -5 -5 -1 -12 5 -7 3 -8 -6 -3 -8 5 -11 3 -8 -6 3 -8 -7 -36 -21 -64 -23
-44 -26 -47 -29 -25 -3 16 3 30 17 41 27 22 27 29 -1 21 -17 -4 -10 7 27 41
57 53 60 54 43 27z m2095 -310 c3 -11 2 -22 -2 -24 -4 -3 -8 6 -9 20 -2 29 4
31 11 4z m-1868 -105 c17 -16 25 -34 24 -57 -1 -22 -3 -26 -6 -13 -11 43 -43
75 -75 75 -49 0 -117 -45 -139 -93 l-20 -42 7 35 c12 65 39 103 79 113 56 13
106 7 130 -18z m472 19 c-3 -3 -12 -4 -19 -1 -8 3 -5 6 6 6 11 1 17 -2 13 -5z
m-122 -24 c3 -6 -1 -7 -9 -4 -18 7 -21 14 -7 14 6 0 13 -4 16 -10z m1634 1
c11 -7 9 -15 -10 -41 l-24 -32 -6 34 c-3 18 -3 36 -1 41 4 9 24 9 41 -2z m73
-33 c8 -7 18 -22 22 -33 4 -11 4 -16 0 -12 -4 4 -15 0 -25 -9 -11 -10 -19 -12
-24 -4 -3 5 -10 8 -15 5 -5 -3 -12 0 -16 6 -4 8 -3 9 4 5 7 -4 12 -2 12 3 0 6
-4 11 -9 11 -5 0 -7 9 -4 20 6 23 32 26 55 8z m-2082 -63 c34 -18 38 -40 13
-75 -10 -14 -16 -27 -15 -30 2 -2 -1 -6 -7 -8 -6 -2 -12 1 -12 7 -3 20 -5 26
-27 68 -12 23 -22 45 -22 48 0 10 42 5 70 -10z m652 -23 c10 -7 16 -18 13 -23
-4 -5 0 -9 7 -9 7 -1 3 -9 -11 -20 -22 -19 -47 -19 -36 0 3 5 0 12 -7 17 -15
10 -17 55 -3 65 6 4 12 2 14 -5 2 -7 13 -18 23 -25z m-703 -90 c-11 -2 -16 -9
-12 -18 8 -20 -61 -19 -82 2 -22 23 -12 54 38 111 l20 22 27 -57 c25 -52 25
-57 9 -60z m626 92 c-11 -8 -19 -20 -17 -25 1 -6 -3 -7 -10 -3 -9 6 -9 3 1 -9
7 -9 20 -17 27 -17 26 0 14 -21 -21 -36 -48 -20 -58 -18 -44 7 6 12 9 32 6 45
-2 13 -1 22 3 19 3 -2 19 5 36 16 35 23 47 25 19 3z m1409 -34 c21 -53 20 -63
-6 -87 -34 -30 -45 -34 -45 -17 0 8 5 13 12 10 8 -3 11 17 10 65 0 38 3 69 6
69 4 0 14 -18 23 -40z m-624 26 c0 -2 -8 -10 -17 -17 -16 -13 -17 -12 -4 4 13
16 21 21 21 13z m1081 -20 c8 -17 8 -39 2 -73 l-10 -48 -12 30 c-7 17 -15 41
-18 55 -2 13 -6 26 -9 29 -5 6 16 31 27 31 5 0 14 -11 20 -24z m-1963 -15
c-13 -15 -26 -27 -30 -25 -4 3 -10 -1 -14 -7 -4 -7 -3 -10 2 -6 5 3 20 -1 34
-8 22 -12 23 -14 7 -21 -17 -6 -106 1 -115 10 -2 3 -1 18 3 35 6 27 10 31 38
29 18 -1 39 -6 47 -12 8 -6 12 -6 8 -2 -6 7 19 29 40 35 2 1 -7 -12 -20 -28z
m2424 -43 c-11 -13 -28 -39 -36 -58 -9 -21 -15 -28 -16 -17 0 10 5 28 11 40
10 21 10 21 -5 3 -9 -11 -16 -36 -16 -55 0 -25 -3 -32 -11 -24 -18 18 20 125
51 140 35 18 49 -1 22 -29z m-102 24 c0 -5 -11 -19 -24 -31 -14 -13 -30 -37
-37 -53 -11 -26 -14 -28 -19 -13 -9 27 -1 60 21 84 19 21 59 29 59 13z m22
-47 c-9 -24 -19 -40 -23 -34 -4 8 -9 7 -13 -2 -3 -8 -3 0 0 16 6 30 30 65 45
65 4 0 1 -20 -9 -45z m-128 7 c-1 -6 -2 -27 -3 -44 -2 -27 -4 -29 -10 -13 -7
16 -9 14 -16 -15 l-9 -35 -4 49 c-2 27 -1 55 2 63 7 17 41 13 40 -5z m-444 4
c0 -3 -4 -8 -10 -11 -5 -3 -10 -1 -10 4 0 6 5 11 10 11 6 0 10 -2 10 -4z
m-352 -85 c-31 -26 -35 -19 -6 10 13 13 25 21 26 16 2 -4 -7 -16 -20 -26z
m355 18 c45 -11 90 -23 100 -25 11 -4 16 -1 15 8 -2 7 4 13 12 13 8 0 14 -5
13 -10 -1 -6 13 -12 30 -13 18 -2 61 -16 97 -33 61 -28 120 -46 180 -53 14 -2
27 -4 30 -6 3 -1 21 -1 41 0 21 1 40 -3 44 -9 3 -6 12 -11 18 -11 7 0 6 4 -3
11 -12 9 -12 10 3 5 10 -3 23 -6 28 -6 6 0 7 -5 3 -11 -4 -8 0 -8 15 0 14 8
21 8 21 1 0 -5 8 -10 18 -10 9 0 13 4 7 8 -5 4 -11 14 -13 22 -2 8 0 12 4 8 4
-4 14 -2 23 5 14 10 14 10 4 -3 -15 -20 9 -55 32 -46 9 3 14 2 10 -3 -3 -5 16
-19 41 -31 25 -13 48 -29 51 -37 3 -7 16 -19 28 -26 29 -15 85 -119 85 -157 0
-16 4 -32 10 -35 6 -4 4 -14 -5 -28 -8 -12 -13 -31 -13 -42 3 -33 -49 -135
-98 -191 -25 -30 -73 -81 -107 -115 -34 -35 -51 -57 -38 -49 21 11 29 10 56
-4 17 -9 37 -27 44 -39 13 -20 13 -21 -2 -9 -12 10 -21 11 -37 2 -16 -9 -31
-8 -64 5 -39 15 -46 15 -73 2 -16 -9 -36 -23 -43 -32 -10 -12 -3 -10 23 5 32
19 41 20 73 10 21 -7 43 -24 55 -44 23 -38 24 -50 3 -42 -8 3 -24 1 -35 -4
-13 -8 -19 -7 -19 0 0 7 -8 9 -20 5 -12 -4 -36 3 -62 18 -61 36 -99 41 -144
22 -22 -9 -67 -26 -101 -37 -35 -12 -63 -24 -63 -28 0 -4 16 -20 35 -34 19
-15 35 -34 35 -43 0 -13 -2 -13 -16 -2 -20 17 -81 38 -89 31 -3 -3 -5 -13 -5
-23 0 -14 -6 -11 -30 13 -25 25 -35 29 -63 23 -17 -4 -42 -13 -54 -21 -18 -11
-23 -11 -33 1 -14 17 -53 19 -81 5 -12 -7 -19 -7 -19 -1 0 15 -35 22 -61 12
-19 -7 -29 -4 -51 17 -25 23 -31 24 -63 15 -19 -6 -35 -7 -35 -3 0 21 -34 41
-59 35 -22 -4 -29 0 -44 26 -11 20 -22 29 -32 25 -8 -3 -15 -2 -15 2 0 11 29
49 30 39 0 -8 11 1 165 140 55 49 107 98 115 109 8 10 -1 5 -20 -12 -45 -40
-100 -77 -100 -68 0 4 -9 -1 -20 -11 -11 -10 -20 -15 -20 -12 0 3 42 39 93 80
50 41 110 93 132 114 58 57 184 191 159 170 -45 -37 -35 -14 16 40 30 31 43
47 28 36 -15 -11 -47 -42 -70 -68 -51 -56 -158 -141 -158 -124 0 6 17 29 39
50 21 21 36 40 34 42 -2 2 3 10 11 16 8 7 12 19 9 27 -4 12 -13 8 -42 -18
l-36 -33 34 37 c29 31 37 35 50 25 12 -10 13 -9 7 1 -9 15 59 92 80 92 21 0 9
-29 -26 -65 -18 -19 -32 -37 -29 -39 5 -5 129 108 129 119 0 4 -9 0 -20 -10
-16 -15 -23 -16 -33 -6 -9 10 -9 14 3 21 8 5 24 16 35 25 37 31 -59 -26 -124
-74 -100 -73 -110 -77 -52 -22 29 29 82 68 117 88 35 20 62 39 59 41 -2 2 -19
-5 -38 -17 l-34 -21 -34 36 -34 35 26 23 c17 15 24 28 19 36 -6 9 -18 4 -48
-20 -29 -23 -53 -33 -82 -35 -23 -1 -47 -8 -53 -15 -9 -9 -2 -11 35 -8 l47 3
-21 -22 c-14 -15 -33 -23 -55 -23 -30 0 -33 2 -33 32 0 42 25 68 65 68 20 0
39 8 51 21 10 12 29 25 42 30 30 12 21 25 -23 33 -19 3 -51 9 -71 12 -27 5
-35 3 -29 -6 4 -6 16 -9 28 -6 11 3 30 -3 43 -13 19 -15 21 -21 11 -34 -14
-19 -94 -36 -83 -18 4 6 1 11 -7 11 -9 0 -14 15 -14 50 -1 27 -4 54 -7 59 -5
8 3 15 22 20 1 1 40 -8 85 -20z m-993 7 c0 -2 -8 -10 -17 -17 -16 -13 -17 -12
-4 4 13 16 21 21 21 13z m863 -163 l-4 -93 41 -6 c22 -4 43 -11 46 -15 3 -5
25 12 50 38 l44 47 31 -33 c16 -18 29 -34 27 -35 -2 -1 -23 -15 -48 -32 -68
-46 -71 -47 -63 -28 4 12 3 15 -5 10 -20 -12 -13 0 10 20 22 19 23 19 8 -1 -9
-12 0 -8 22 10 44 36 46 43 12 39 -14 -1 -42 -19 -61 -39 -20 -20 -33 -30 -30
-22 13 33 -42 -14 -203 -174 -209 -207 -264 -254 -280 -234 -9 11 1 23 57 64
90 65 194 176 187 199 -4 11 -3 13 3 5 6 -8 13 -7 28 4 20 16 20 16 0 9 -19
-6 -19 -5 -2 8 18 14 24 32 7 21 -5 -3 -10 0 -10 9 0 8 -5 16 -12 18 -8 3 -7
11 4 27 17 24 35 13 24 -15 -4 -12 -1 -14 14 -9 15 5 20 2 20 -10 0 -23 109
74 109 98 1 10 -4 15 -9 12 -6 -4 -7 -11 -4 -17 4 -6 2 -8 -3 -5 -6 4 -13 0
-17 -8 -7 -18 -24 -20 -23 -2 1 6 -2 53 -7 103 -5 64 -4 99 4 115 9 19 6 18
-14 -6 -14 -16 -26 -38 -26 -47 0 -17 -10 -22 -27 -15 -15 5 -30 -57 -22 -91
7 -32 4 -38 -24 -61 -17 -14 -42 -38 -56 -53 -14 -16 -30 -28 -35 -28 -5 0
-24 -16 -43 -35 -19 -20 -53 -48 -76 -63 -23 -15 -57 -42 -77 -59 -19 -18 -38
-33 -41 -33 -3 0 -4 15 -2 33 l4 32 -28 -30 c-15 -17 -46 -44 -67 -59 -37 -28
-39 -28 -52 -11 -13 18 -16 17 -47 -12 -17 -17 -40 -29 -49 -28 -16 3 -22 -5
-20 -25 1 -12 -37 -8 -42 5 -5 13 137 118 161 118 7 0 10 3 8 7 -3 4 28 29 68
55 124 83 434 361 506 454 l26 35 6 -35 c3 -19 4 -76 2 -126z m684 125 c-3 -7
-5 -2 -5 12 0 14 2 19 5 13 2 -7 2 -19 0 -25z m361 10 c7 -10 3 -18 -16 -32
l-27 -20 19 22 c11 12 17 22 13 22 -21 0 -41 -18 -58 -52 -11 -22 -23 -37 -26
-34 -10 9 6 54 29 80 25 28 50 33 66 14z m-451 -30 c-3 -7 -5 -2 -5 12 0 14 2
19 5 13 2 -7 2 -19 0 -25z m73 7 c0 -14 -2 -25 -4 -25 -2 0 -6 11 -8 25 -3 14
-1 25 3 25 5 0 9 -11 9 -25z m117 -7 c-3 -7 -5 -2 -5 12 0 14 2 19 5 13 2 -7
2 -19 0 -25z m359 -23 c36 -31 37 -34 16 -35 -30 0 -60 -16 -94 -48 l-28 -26
0 23 c0 12 13 36 29 52 16 16 24 29 17 29 -16 0 -41 -20 -55 -45 -9 -17 -10
-14 -5 15 7 36 37 69 65 70 9 0 33 -16 55 -35z m-2535 -6 c11 -5 31 -35 45
-66 13 -31 49 -88 79 -128 30 -39 55 -78 55 -86 0 -8 -8 -2 -17 13 -14 22 -23
26 -47 24 -28 -4 -29 -3 -11 10 18 13 17 15 -14 59 -17 24 -43 69 -57 99 -24
52 -26 55 -50 44 -29 -13 -38 -7 -29 21 7 24 17 26 46 10z m2180 -12 c-10 -9
-11 -8 -5 6 3 10 9 15 12 12 3 -3 0 -11 -7 -18z m413 -43 c24 -23 20 -30 -23
-42 -21 -7 -54 -23 -74 -36 -37 -26 -53 -21 -42 13 10 32 61 66 122 81 1 0 9
-7 17 -16z m-2245 3 c-2 -1 -13 -9 -24 -17 -19 -14 -19 -14 -6 3 7 9 18 17 24
17 6 0 8 -1 6 -3z m1261 -1 c0 -2 -8 -10 -17 -17 -16 -13 -17 -12 -4 4 13 16
21 21 21 13z m-1342 -81 c-13 -12 -34 -28 -47 -34 -16 -9 -12 -1 15 28 21 22
42 37 47 34 5 -3 -2 -16 -15 -28z m2394 8 c38 -44 32 -88 -9 -72 -31 11 -113
8 -106 -5 3 -5 0 -7 -6 -5 -7 3 -12 8 -12 12 1 4 1 14 1 22 0 8 6 15 13 15 8
0 24 11 37 25 27 29 61 32 82 8z m-3193 -145 c84 -28 110 -32 211 -32 139 -1
260 6 254 15 -2 4 5 5 15 2 12 -3 28 4 42 18 15 15 24 18 27 11 2 -7 9 -9 15
-6 7 4 5 0 -3 -9 -21 -22 -104 -44 -220 -58 -118 -15 -234 -3 -350 36 -76 26
-84 30 -184 98 -84 58 -76 61 16 6 45 -27 125 -63 177 -81z m-934 102 c3 -5 1
-10 -4 -10 -6 0 -11 5 -11 10 0 6 2 10 4 10 3 0 8 -4 11 -10z m3016 -13 c-10
-9 -11 -8 -5 6 3 10 9 15 12 12 3 -3 0 -11 -7 -18z m-1361 -1 c0 -2 -8 -10
-17 -17 -16 -13 -17 -12 -4 4 13 16 21 21 21 13z m2455 -36 c28 -10 49 -52 40
-80 -5 -15 -11 -16 -44 -7 -31 9 -48 7 -81 -6 l-42 -16 6 27 c5 20 4 23 -4 12
-5 -8 -10 -22 -10 -31 0 -9 -7 -22 -15 -29 -24 -20 -19 5 11 56 44 75 82 96
139 74z m-2475 -125 c-21 -25 -32 -17 -13 9 10 13 20 20 21 15 2 -5 -2 -16 -8
-24z m2444 19 c42 -16 39 -84 -4 -84 -26 0 -25 14 3 33 12 9 16 16 10 16 -7 1
-21 -7 -31 -16 -11 -12 -34 -18 -67 -19 l-49 -1 34 29 c50 42 76 53 104 42z
m-1022 -61 c-30 -37 -81 -87 -152 -148 l-34 -30 33 40 c31 36 171 173 179 175
2 0 -10 -17 -26 -37z m-532 -27 c0 -2 -7 -7 -16 -10 -8 -3 -12 -2 -9 4 6 10
25 14 25 6z m1524 -19 c18 -9 18 -10 -5 -28 -17 -13 -19 -19 -9 -19 8 -1 4 -6
-10 -11 -25 -10 -96 -3 -104 10 -3 4 9 21 25 39 31 33 53 35 103 9z m-1584
-67 c0 -5 -2 -10 -4 -10 -3 0 -8 5 -11 10 -3 6 -1 10 4 10 6 0 11 -4 11 -10z
m-136 -16 c3 -8 2 -12 -4 -9 -6 3 -10 1 -10 -6 0 -7 -3 -10 -6 -6 -7 6 2 37
10 37 2 0 7 -7 10 -16z m-2254 -26 c137 -66 317 -139 448 -183 78 -26 141 -50
138 -52 -6 -6 -262 78 -389 128 -116 46 -253 114 -263 130 -4 7 -3 10 2 8 5
-3 34 -17 64 -31z m3916 11 c19 -11 34 -23 34 -25 0 -3 -6 -2 -12 2 -10 6 -10
5 -1 -7 10 -12 8 -17 -8 -27 -16 -10 -30 -9 -74 3 -50 15 -54 18 -44 36 9 18
40 37 63 38 5 1 24 -8 42 -20z m84 -9 c0 -5 -5 -10 -11 -10 -5 0 -7 5 -4 10 3
6 8 10 11 10 2 0 4 -4 4 -10z m14 -24 c-3 -9 -10 -13 -15 -10 -5 3 -3 11 4 19
15 16 19 13 11 -9z m-1764 -10 c-14 -14 -12 -29 1 -20 6 3 3 -5 -6 -20 -10
-14 -26 -27 -36 -27 -38 -3 -42 -4 -46 -16 -6 -18 19 -28 31 -12 6 8 17 15 24
17 6 1 18 3 25 5 7 1 11 -6 9 -17 -3 -18 -2 -18 13 -2 9 9 22 16 29 16 39 0
77 -15 91 -36 15 -23 15 -24 -10 -12 -36 16 -58 4 -270 -150 -148 -107 -205
-145 -211 -139 -6 6 81 89 92 87 11 -2 44 70 44 97 0 13 3 23 8 23 4 0 23 14
42 31 19 17 30 28 23 25 -6 -3 -13 -1 -15 5 -2 6 -16 -2 -32 -18 -25 -24 -27
-25 -17 -5 7 13 23 28 37 34 13 6 24 15 24 20 0 5 5 6 10 3 6 -4 7 -11 4 -17
-4 -7 -2 -8 4 -4 6 4 8 14 5 23 -5 12 -3 14 8 8 8 -4 11 -4 6 0 -4 5 1 17 10
28 22 26 10 18 -77 -43 -89 -63 -99 -69 -81 -46 8 9 34 29 58 43 24 13 43 29
43 33 0 5 18 17 40 26 23 10 39 23 36 30 -4 12 19 12 54 2 8 -3 12 -3 7 -1 -4
3 -5 9 -2 14 4 5 -1 6 -10 3 -10 -4 -14 -2 -10 7 3 8 16 14 30 14 15 0 20 -3
15 -9z m-1045 -16 c3 -5 1 -10 -4 -10 -6 0 -11 5 -11 10 0 6 2 10 4 10 3 0 8
-4 11 -10z m788 -4 c5 -13 -18 -31 -35 -28 -3 1 -12 -5 -18 -13 -14 -16 -44
-21 -38 -6 3 10 68 59 79 60 4 1 9 -5 12 -13z m335 -23 c16 -16 11 -16 -22 -3
-14 5 -26 17 -26 26 0 17 11 12 48 -23z m-1048 18 c0 -5 -9 -7 -20 -4 -11 3
-20 7 -20 9 0 2 9 4 20 4 11 0 20 -4 20 -9z m2690 5 c0 -2 -8 -10 -17 -17 -16
-13 -17 -12 -4 4 13 16 21 21 21 13z m-2640 -15 c0 -5 -9 -7 -20 -4 -11 3 -20
7 -20 9 0 2 9 4 20 4 11 0 20 -4 20 -9z m2538 3 c23 -6 28 -29 13 -53 -7 -11
-16 -8 -47 13 -21 14 -48 26 -59 27 -20 0 -20 0 0 9 24 10 62 12 93 4z m119
-26 c-3 -7 -5 -2 -5 12 0 14 2 19 5 13 2 -7 2 -19 0 -25z m-1802 -28 c3 -5 1
-10 -4 -10 -6 0 -11 5 -11 10 0 6 2 10 4 10 3 0 8 -4 11 -10z m1640 -5 c18
-15 18 -16 2 -44 -19 -32 -22 -56 -7 -46 6 3 10 2 10 -4 0 -13 -17 -23 -22
-13 -5 13 -95 62 -115 62 -14 1 -10 7 17 30 38 33 83 39 115 15z m-1827 -35
c-22 -31 -34 -40 -23 -17 4 6 -1 3 -9 -7 -9 -11 -16 -16 -16 -12 0 5 -7 3 -15
-4 -21 -17 -19 -7 4 18 15 18 67 52 79 52 1 0 -7 -13 -20 -30z m432 -5 c0 -5
-5 -3 -10 5 -5 8 -10 20 -10 25 0 6 5 3 10 -5 5 -8 10 -19 10 -25z m71 8 c13
-16 12 -17 -3 -4 -17 13 -22 21 -14 21 2 0 10 -8 17 -17z m-1 -45 c0 -10 -7
-18 -16 -18 -8 0 -13 4 -9 9 3 5 1 12 -5 16 -5 3 -10 0 -10 -7 0 -9 -3 -9 -10
2 -5 8 -10 10 -10 4 0 -6 -17 -18 -37 -27 -32 -15 -35 -15 -18 -2 11 9 19 20
18 25 -2 5 4 7 12 4 8 -4 15 -1 15 5 0 6 15 10 35 8 26 -1 35 -7 35 -19z
m1230 -8 c46 -23 50 -41 15 -60 -21 -11 -27 -11 -42 2 -10 9 -31 22 -47 30
l-30 15 30 16 c36 20 28 20 74 -3z m-1713 -15 c0 -8 -7 -15 -15 -15 -12 0 -12
3 -2 15 7 8 13 15 15 15 1 0 2 -7 2 -15z m473 -15 c18 -12 2 -12 -25 0 -13 6
-15 9 -5 9 8 0 22 -4 30 -9z m-36 -15 c21 -16 18 -18 -33 -19 -13 -1 -25 -7
-27 -14 -1 -7 0 -8 3 -2 2 5 9 10 14 10 5 0 4 -9 -3 -19 -11 -18 -12 -18 -29
2 -18 23 -14 51 7 43 7 -3 16 -1 19 4 9 14 27 12 49 -5z m1422 -23 c-9 -17
-20 -33 -25 -36 -5 -4 0 12 12 33 25 46 36 48 13 3z m-1866 20 c0 -5 -10 -17
-22 -28 -23 -19 -23 -19 -5 2 9 11 14 24 10 27 -3 4 -1 7 5 7 7 0 12 -4 12 -8z
m1750 -36 c0 -3 -4 -8 -10 -11 -5 -3 -10 -1 -10 4 0 6 5 11 10 11 6 0 10 -2
10 -4z m-1257 -19 c-2 -4 -9 -5 -14 -2 -5 4 -9 2 -9 -4 0 -5 5 -11 11 -13 6
-2 -5 -16 -25 -31 -38 -29 -50 -23 -16 8 11 10 20 23 19 29 0 6 -3 6 -6 -1 -2
-7 -11 -13 -19 -13 -8 0 -13 -3 -12 -7 0 -5 -2 -16 -7 -26 -6 -15 -10 -16 -16
-5 -6 9 -9 9 -9 1 0 -7 8 -17 18 -22 10 -6 12 -11 4 -11 -7 0 -10 -4 -7 -10 3
-5 0 -10 -9 -10 -20 0 -25 20 -13 55 16 49 45 74 82 72 18 -1 31 -5 28 -10z
m1317 -23 c0 -8 -5 -12 -10 -9 -6 4 -8 11 -5 16 9 14 15 11 15 -7z m-1443 -19
c-7 -13 -14 -20 -15 -14 -2 5 2 16 8 24 18 21 20 18 7 -10z m168 -15 c3 -5 3
-10 -2 -10 -18 0 -88 -77 -89 -97 -1 -19 3 -22 22 -19 17 3 21 1 17 -10 -12
-33 -62 -1 -58 38 4 39 23 67 58 88 37 23 43 24 52 10z m905 -12 c44 -30 46
-40 12 -59 -33 -19 -53 -13 -102 29 l-35 30 35 10 c50 15 54 14 90 -10z m-890
-26 c0 -10 -11 -29 -25 -42 -21 -20 -25 -21 -30 -7 -8 19 22 67 41 67 8 0 14
-8 14 -18z m771 -5 c8 -7 24 -24 34 -40 l18 -28 -25 10 c-19 7 -29 6 -40 -5
-12 -12 -19 -10 -53 20 l-39 35 24 10 c34 13 62 13 81 -2z m-700 -9 c4 -30 0
-46 -20 -88 l-21 -45 0 37 c0 48 -15 56 -29 16 -6 -17 -14 -28 -17 -25 -10 9
14 69 38 94 24 25 47 30 49 11z m1066 -30 c-3 -7 -5 -2 -5 12 0 14 2 19 5 13
2 -7 2 -19 0 -25z m-1829 -13 c-3 -3 -9 2 -12 12 -6 14 -5 15 5 6 7 -7 10 -15
7 -18z m873 15 c23 -13 25 -46 4 -66 -13 -14 -15 -13 -15 7 0 32 -17 12 -23
-26 -4 -29 -4 -29 -6 5 l-1 35 -21 -30 -21 -30 5 45 c7 60 36 82 78 60z m103
-29 c9 -13 -15 -72 -26 -65 -5 3 -12 -4 -15 -16 -8 -30 -23 -6 -23 37 0 40 47
72 64 44z m116 -11 c11 -11 20 -29 20 -40 0 -13 -7 -20 -20 -20 -19 0 -26 -19
-21 -55 1 -5 -6 -1 -14 9 -8 11 -15 24 -15 29 0 5 -6 4 -14 -2 -16 -14 -26 4
-26 50 0 21 6 32 23 39 34 13 45 12 67 -10z m125 14 c8 -4 22 -19 31 -35 14
-29 14 -29 -16 -29 -20 0 -30 -5 -30 -15 0 -9 -9 -15 -24 -15 -17 0 -27 9 -37
31 -12 29 -11 33 10 50 25 20 39 23 66 13z m161 -45 c5 -9 -3 -10 -31 -6 -43
7 -40 5 -50 35 l-7 23 40 -20 c23 -11 44 -26 48 -32z m-1446 31 c-20 -13 -67
-13 -75 0 -4 6 12 10 42 10 35 0 44 -3 33 -10z m763 -80 c3 -14 1 -20 -6 -17
-7 2 -14 14 -15 26 -4 28 13 20 21 -9z m876 1 c8 -5 9 -11 3 -15 -5 -3 -15 1
-22 9 -14 16 -3 20 19 6z m-555 -79 c3 -5 -1 -9 -9 -9 -8 0 -12 4 -9 9 3 4 7
8 9 8 2 0 6 -4 9 -8z m161 -32 c-3 -5 -12 -10 -18 -10 -7 0 -6 4 3 10 19 12
23 12 15 0z"/>
<path d="M3331 4106 c2 -2 67 -23 144 -45 77 -23 203 -61 280 -85 128 -40 142
-43 167 -30 40 21 45 37 5 18 -32 -15 -37 -15 -128 14 -52 16 -146 44 -209 62
-63 18 -144 41 -179 51 -61 18 -89 24 -80 15z"/>
<path d="M3518 3956 c-107 -38 -185 -102 -204 -166 -5 -21 -1 -18 27 16 62 75
167 134 282 159 l62 13 -50 1 c-29 0 -79 -10 -117 -23z"/>
<path d="M3310 3960 c0 -6 -5 -8 -10 -5 -15 9 -22 -18 -11 -46 5 -13 10 -18
10 -11 1 6 6 12 12 12 5 0 7 -6 3 -12 -6 -10 -3 -9 8 0 10 8 14 20 11 29 -4
10 -2 14 5 9 6 -3 14 -1 18 5 4 7 3 9 -4 5 -6 -3 -18 1 -26 10 -9 9 -16 11
-16 4z"/>
<path d="M3354 3908 l-19 -23 23 19 c21 18 27 26 19 26 -2 0 -12 -10 -23 -22z"/>
<path d="M3860 3870 c0 -12 28 -25 36 -17 3 3 -4 10 -15 17 -15 7 -21 7 -21 0z"/>
<path d="M3784 3626 c11 -9 24 -16 30 -16 12 0 7 5 -24 19 -24 11 -24 11 -6
-3z"/>
<path d="M3750 3570 c8 -5 20 -10 25 -10 6 0 3 5 -5 10 -8 5 -19 10 -25 10 -5
0 -3 -5 5 -10z"/>
<path d="M3615 3454 c19 -16 19 -16 -5 -9 -39 11 -11 -9 33 -24 21 -7 41 -11
43 -8 3 2 -7 8 -21 11 -14 4 -23 11 -20 16 3 5 -3 14 -14 19 -29 16 -39 13
-16 -5z"/>
<path d="M3590 3390 c8 -5 20 -10 25 -10 6 0 3 5 -5 10 -8 5 -19 10 -25 10 -5
0 -3 -5 5 -10z"/>
<path d="M1351 4203 c-46 -56 -59 -90 -66 -179 -7 -75 -6 -83 14 -103 11 -11
29 -21 39 -21 11 0 5 7 -17 21 l-33 20 6 67 c9 88 46 164 89 186 22 11 26 16
13 16 -15 0 -16 3 -6 15 8 9 8 15 2 15 -6 0 -24 -17 -41 -37z"/>
<path d="M1380 4155 c-7 -9 -10 -18 -7 -21 3 -3 10 4 17 15 13 25 8 27 -10 6z"/>
<path d="M1538 3993 c7 -3 16 -2 19 1 4 3 -2 6 -13 5 -11 0 -14 -3 -6 -6z"/>
<path d="M1595 3991 c-6 -6 -32 -14 -60 -20 l-50 -10 50 4 c27 3 56 12 64 20
9 8 13 15 10 15 -3 0 -9 -4 -14 -9z"/>
<path d="M2961 3724 c0 -11 3 -14 6 -6 3 7 2 16 -1 19 -3 4 -6 -2 -5 -13z"/>
<path d="M2938 3599 c-10 -59 -25 -128 -33 -154 -9 -26 -14 -49 -12 -52 14
-13 73 254 65 295 -2 9 -11 -31 -20 -89z"/>
<path d="M1806 3495 c-11 -8 -16 -15 -10 -15 5 0 18 7 28 15 11 8 16 15 10 15
-5 0 -18 -7 -28 -15z"/>
<path d="M1852 3383 c-12 -2 -20 -8 -17 -13 3 -4 -6 -15 -19 -23 -57 -38 -74
-180 -26 -219 51 -42 149 -4 188 72 27 52 27 140 0 167 -16 16 -86 25 -126 16z
m119 -44 c18 -18 20 -29 15 -66 -8 -58 -13 -66 -42 -59 -49 13 -104 -43 -59
-60 23 -9 7 -24 -27 -24 -30 0 -31 1 -25 40 6 47 33 78 95 109 50 25 56 54 15
69 -18 7 -22 11 -10 11 9 1 27 -9 38 -20z"/>
<path d="M1740 3164 c0 -6 7 -19 16 -30 14 -18 14 -18 3 6 -14 31 -19 36 -19
24z"/>
<path d="M2966 3128 c-3 -13 -5 -34 -5 -48 1 -15 5 -7 10 19 9 47 6 68 -5 29z"/>
<path d="M2352 3114 c-87 -43 -123 -107 -92 -165 20 -36 3 -19 -25 26 -16 24
-35 47 -44 50 -11 4 -10 0 5 -17 64 -73 95 -149 97 -241 1 -37 6 -60 12 -57
16 8 7 105 -14 161 l-20 50 24 -15 c35 -23 66 -20 105 13 19 15 49 35 67 44
48 25 74 65 71 106 -2 27 -7 36 -20 35 -10 -1 -16 2 -13 6 6 10 -41 30 -74 30
-15 0 -50 -12 -79 -26z m56 -44 c-32 -10 -73 -27 -93 -38 -32 -20 -34 -20 -23
-2 20 32 80 60 128 59 l45 -1 -57 -18z m98 -44 c-3 -14 -25 -37 -53 -55 -27
-17 -60 -40 -74 -52 -22 -17 -30 -19 -45 -9 -18 11 -18 11 0 6 38 -12 63 38
32 63 -12 10 -21 9 -43 -5 l-28 -17 30 27 c38 33 88 57 140 65 48 8 49 8 41
-23z"/>
<path d="M2392 3003 c4 -20 30 -28 56 -18 15 6 13 8 -8 20 -34 19 -52 18 -48
-2z"/>
<path d="M2932 2913 c-50 -294 -123 -574 -204 -788 -27 -71 -56 -141 -63 -155
-15 -30 -80 -214 -89 -252 -5 -22 -3 -26 9 -22 8 3 13 10 10 14 -3 4 2 10 10
13 9 4 12 1 8 -9 -3 -7 -2 -14 1 -14 7 0 121 91 245 197 79 67 98 99 56 90
-14 -2 -22 0 -19 4 3 5 1 9 -4 9 -6 0 -9 8 -8 18 0 11 -6 16 -17 16 -13 -2
-15 1 -7 10 5 7 8 15 5 18 -2 2 5 29 16 59 12 30 30 104 41 164 11 61 26 142
33 180 8 39 14 95 13 125 l-1 55 -8 -63 c-10 -80 -16 -99 -32 -99 -10 0 -6 35
15 140 16 77 27 145 25 151 -2 6 -21 -61 -41 -149 -40 -172 -40 -170 -116
-415 -50 -161 -70 -214 -77 -206 -2 2 1 16 7 31 10 26 9 27 -7 14 -15 -13 -16
-12 -9 6 72 178 195 660 227 892 19 136 5 113 -19 -34z"/>
<path d="M2430 2920 c-10 -6 -3 -8 22 -3 50 8 95 -12 115 -51 l15 -31 -21 23
c-45 47 -66 54 -113 42 -46 -13 -91 -49 -114 -91 -12 -23 -11 -29 1 -39 12
-10 25 -7 67 15 40 21 68 28 113 29 74 1 83 -18 32 -69 -21 -21 -29 -35 -21
-35 26 0 74 89 74 137 0 40 -3 44 -40 63 -41 21 -105 26 -130 10z"/>
<path d="M2375 2700 c-16 -4 -25 -8 -18 -9 6 0 0 -14 -15 -29 -15 -15 -30 -26
-34 -24 -11 5 -10 -4 5 -41 8 -19 29 -40 50 -52 37 -20 43 -36 31 -82 -4 -14
-11 -20 -22 -16 -10 3 -5 -4 11 -14 15 -11 24 -22 21 -25 -3 -4 5 -14 19 -22
22 -15 27 -15 63 0 42 18 55 30 85 87 19 37 17 74 -3 46 -6 -9 -7 6 -3 43 8
72 -12 111 -67 133 -41 16 -74 17 -123 5z m148 -50 c27 -31 36 -80 18 -108 -6
-10 -18 -2 -45 32 -21 25 -54 55 -74 66 -35 21 -36 22 -17 37 30 22 85 10 118
-27z m4 -121 c12 -12 5 -52 -8 -43 -5 3 -9 14 -9 24 0 10 -6 21 -12 23 -9 4
-8 6 3 6 8 1 20 -4 26 -10z m-43 -38 l28 -30 -27 -25 c-15 -14 -24 -26 -18
-26 5 0 13 3 17 7 3 4 13 8 22 9 12 2 13 -1 4 -11 -16 -19 -66 -28 -87 -16
-17 10 -17 10 2 11 19 1 19 2 -2 12 -27 13 -28 18 -9 63 18 43 34 44 70 6z"/>
<path d="M2221 2478 c-11 -29 -9 -35 10 -50 12 -10 33 -18 48 -18 l26 0 -33
21 c-18 12 -31 24 -28 27 3 2 28 -10 56 -28 l52 -33 -32 -14 c-18 -7 -40 -13
-49 -13 -10 -1 -6 -6 12 -16 15 -8 27 -17 27 -21 0 -3 -3 -3 -7 0 -3 4 -13 1
-21 -6 -13 -10 -15 -9 -10 5 7 17 -14 20 -29 3 -4 -4 -2 -5 5 -1 16 9 15 -4
-2 -26 -7 -10 -16 -15 -19 -11 -4 3 -7 -1 -7 -10 0 -9 11 -24 25 -33 25 -16
41 -54 37 -85 -3 -17 37 -39 70 -39 24 0 99 73 123 120 22 42 13 37 -19 -10
-14 -22 -31 -40 -37 -40 -5 0 -3 10 5 22 17 24 21 42 7 34 -4 -3 -6 5 -4 18 8
40 -38 109 -114 174 -40 34 -74 62 -76 62 -3 0 -10 -15 -16 -32z m34 2 c3 -5
1 -10 -4 -10 -6 0 -11 5 -11 10 0 6 2 10 4 10 3 0 8 -4 11 -10z m125 -122 c6
-18 16 -41 21 -50 13 -26 11 -38 -6 -32 -11 5 -15 -1 -15 -19 0 -29 -33 -57
-66 -57 -17 0 -25 9 -34 35 -6 19 -18 35 -26 35 -8 0 -14 5 -14 10 0 6 7 10
15 10 8 0 15 5 15 11 0 5 -5 7 -12 3 -7 -5 -8 -3 -4 5 5 7 11 10 14 7 3 -3 11
-1 19 5 9 9 13 8 13 0 0 -6 5 -11 11 -11 5 0 9 8 8 18 -4 45 1 53 42 61 4 0
12 -14 19 -31z"/>
<path d="M2346 2372 c-3 -5 1 -17 8 -27 12 -17 13 -17 11 3 -2 26 -11 37 -19
24z"/>
<path d="M2951 2374 c0 -11 3 -14 6 -6 3 7 2 16 -1 19 -3 4 -6 -2 -5 -13z"/>
<path d="M1350 2263 c-41 -20 -88 -40 -105 -44 -28 -8 -28 -8 8 -6 20 2 37 2
37 1 0 -1 -7 -15 -15 -30 -8 -16 -15 -47 -15 -69 0 -34 6 -47 38 -77 51 -49
71 -58 139 -60 l58 -1 -60 -7 c-58 -7 -58 -7 18 -5 60 1 82 6 95 19 16 17 16
18 -5 5 -17 -10 -27 -10 -48 -1 -14 7 -45 12 -69 12 -86 0 -152 77 -132 155
18 70 121 137 185 119 22 -6 18 -9 -34 -20 -49 -10 -66 -19 -98 -53 -35 -38
-38 -45 -35 -94 3 -51 4 -52 33 -51 17 0 44 4 60 8 l30 8 -28 -20 c-17 -11
-24 -22 -18 -26 12 -8 94 72 115 112 8 15 17 44 21 65 6 32 3 40 -23 67 -17
16 -41 30 -54 30 -13 0 -57 -16 -98 -37z m148 -64 c2 -23 2 -23 -23 6 -31 37
-32 52 -2 33 12 -9 23 -26 25 -39z m-57 -41 c22 -6 39 -15 39 -19 0 -13 -36
-29 -64 -29 -30 0 -43 -16 -19 -24 10 -2 3 -3 -16 -2 -43 3 -46 12 -21 54 22
36 26 37 81 20z"/>
<path d="M1055 2200 c10 -42 70 -155 82 -155 7 0 18 -7 25 -15 11 -12 11 -12
-4 -1 -12 9 -18 10 -18 2 0 -23 183 -186 199 -177 5 4 13 1 17 -5 5 -8 3 -9
-6 -4 -9 5 -11 4 -6 -3 26 -43 264 -132 366 -138 l65 -4 -65 15 c-141 32 -323
96 -337 118 -2 4 12 1 31 -7 20 -8 34 -10 30 -5 -4 7 2 9 17 5 13 -3 4 3 -19
14 -24 11 -48 17 -53 14 -5 -3 -8 0 -7 8 2 7 -5 12 -14 12 -10 -1 -16 1 -15 5
1 4 -27 32 -63 62 -36 30 -87 85 -115 121 -52 70 -67 81 -40 29 8 -17 13 -31
10 -31 -4 0 -24 37 -46 83 -22 45 -37 71 -34 57z m175 -245 c30 -30 52 -55 49
-55 -2 0 -29 25 -59 55 -30 30 -52 55 -49 55 2 0 29 -25 59 -55z"/>
<path d="M1690 2199 c-101 -40 -131 -180 -55 -256 42 -42 84 -44 137 -7 64 45
96 146 68 218 -17 46 -91 68 -150 45z m118 -39 c30 -40 28 -50 -6 -40 -35 9
-62 -4 -62 -30 0 -15 7 -20 29 -20 51 0 61 -8 50 -40 -14 -40 -43 -63 -68 -55
-16 5 -20 12 -16 28 3 12 -1 31 -9 42 -14 17 -17 18 -26 5 -15 -23 -12 -61 8
-84 17 -21 17 -21 -5 -2 -28 23 -31 78 -5 104 9 10 22 27 28 38 6 10 25 26 42
35 23 12 28 19 20 27 -26 26 -90 3 -127 -44 -32 -40 -30 -126 4 -159 13 -14
20 -25 14 -25 -5 0 -21 11 -34 25 -50 49 -20 181 48 210 54 24 90 19 115 -15z"/>
<path d="M728 1843 c7 -3 16 -2 19 1 4 3 -2 6 -13 5 -11 0 -14 -3 -6 -6z"/>
<path d="M640 1809 c0 -5 4 -9 9 -9 5 0 11 -9 14 -20 3 -11 1 -20 -4 -20 -19
0 -8 -17 18 -29 30 -14 60 2 33 19 -8 5 -18 6 -22 4 -4 -3 -8 -1 -8 5 0 5 -3
18 -6 28 -5 15 -4 15 5 3 5 -8 13 -11 17 -7 4 4 3 12 -2 17 -14 14 -54 21 -54
9z"/>
<path d="M1638 1763 c7 -3 16 -2 19 1 4 3 -2 6 -13 5 -11 0 -14 -3 -6 -6z"/>
<path d="M1933 1763 c9 -2 23 -2 30 0 6 3 -1 5 -18 5 -16 0 -22 -2 -12 -5z"/>
<path d="M1708 1753 c6 -2 18 -2 25 0 6 3 1 5 -13 5 -14 0 -19 -2 -12 -5z"/>
<path d="M1818 1753 c18 -2 45 -2 60 0 15 2 0 4 -33 4 -33 0 -45 -2 -27 -4z"/>
<path d="M640 1714 c0 -6 3 -14 7 -18 4 -3 8 -13 9 -22 2 -12 0 -13 -12 -3 -8
6 -17 9 -20 6 -9 -9 38 -30 73 -33 23 -2 30 1 26 12 -3 7 -10 12 -16 11 -6 -1
-11 4 -12 12 0 8 -9 15 -19 17 -10 1 -23 9 -27 16 -5 7 -9 8 -9 2z"/>
<path d="M1798 1693 c12 -2 30 -2 40 0 9 3 -1 5 -23 4 -22 0 -30 -2 -17 -4z"/>
<path d="M2378 1600 c12 -5 22 -15 22 -21 0 -7 3 -9 6 -6 10 10 -16 37 -35 36
-11 0 -9 -3 7 -9z"/>
<path d="M2308 1573 c6 -2 18 -2 25 0 6 3 1 5 -13 5 -14 0 -19 -2 -12 -5z"/>
<path d="M2005 1471 c6 -5 24 -13 40 -17 39 -9 30 0 -15 15 -19 6 -30 7 -25 2z"/>
<path d="M2065 1180 c2 -4 22 -10 44 -14 22 -3 48 -9 58 -13 10 -3 15 -3 11 2
-10 10 -119 35 -113 25z"/>
<path d="M2203 1143 c9 -2 25 -2 35 0 9 3 1 5 -18 5 -19 0 -27 -2 -17 -5z"/>
<path d="M4103 3853 c1 -17 5 -29 10 -26 4 2 7 -4 8 -14 0 -10 3 -13 5 -7 3 7
-2 27 -10 45 l-14 34 1 -32z"/>
<path d="M2205 3190 c-7 -12 62 -47 72 -36 9 9 -33 46 -53 46 -7 0 -16 -4 -19
-10z"/>
<path d="M1942 3030 c1 -44 18 -48 18 -6 0 20 -4 36 -9 36 -5 0 -9 -14 -9 -30z"/>
<path d="M1810 3025 c-7 -8 -11 -15 -9 -16 34 -7 49 -4 49 13 0 22 -23 24 -40
3z"/>
<path d="M2005 3014 c-16 -13 -26 -26 -22 -30 3 -4 13 -1 21 5 12 10 13 8 9
-11 l-6 -23 27 24 c28 26 34 37 14 25 -10 -6 -10 -4 0 8 22 27 -10 29 -43 2z"/>
<path d="M1745 3019 c4 -6 0 -9 -11 -7 -11 2 -20 -4 -22 -14 -3 -14 3 -18 22
-18 21 0 26 5 26 25 0 14 -5 25 -11 25 -5 0 -7 -5 -4 -11z"/>
<path d="M2127 2935 c-9 -9 -20 -15 -24 -15 -4 1 -9 -6 -11 -14 -2 -11 4 -16
20 -17 22 0 22 -1 3 -9 -15 -7 -16 -9 -4 -9 9 -1 22 6 29 14 7 8 9 15 5 15 -4
0 -2 7 5 15 19 23 -2 41 -23 20z"/>
<path d="M2153 2792 c0 -27 25 -41 38 -21 17 27 10 49 -15 47 -18 -2 -23 -8
-23 -26z"/>
<path d="M1472 2788 c-6 -7 -13 -27 -17 -43 -6 -28 -5 -27 15 9 21 38 23 58 2
34z"/>
<path d="M1505 2703 c4 -14 2 -23 -4 -23 -6 0 -10 6 -8 13 1 6 -5 12 -13 12
-8 0 -16 -8 -18 -17 -2 -12 3 -18 16 -18 11 0 22 -6 24 -12 3 -8 10 -4 17 11
11 20 10 26 -4 40 -16 15 -17 14 -10 -6z"/>
<path d="M2162 2658 c-17 -17 -15 -48 3 -54 18 -7 45 12 45 32 0 20 -34 36
-48 22z"/>
<path d="M1434 2619 c-3 -6 0 -17 8 -25 12 -12 20 -13 41 -3 39 18 34 39 -7
39 -19 0 -38 -5 -42 -11z"/>
<path d="M1430 2503 l1 -38 13 30 c8 20 15 25 20 17 9 -15 26 -6 26 14 0 9
-11 14 -30 14 -28 0 -30 -2 -30 -37z"/>
<path d="M1475 2476 c-13 -13 -26 -22 -29 -19 -2 3 -2 -5 1 -16 3 -12 9 -23
13 -26 5 -3 6 3 3 13 -2 10 6 27 22 42 20 19 28 21 38 11 9 -10 8 -11 -5 -6
-14 6 -18 2 -18 -15 0 -11 -4 -18 -10 -15 -5 3 -10 2 -10 -4 0 -23 23 -21 48
4 26 26 26 27 7 41 -26 19 -32 18 -60 -10z"/>
<path d="M1733 2788 c-21 -10 -47 -61 -37 -71 3 -3 6 -18 7 -33 2 -22 11 -33
37 -46 19 -10 28 -18 20 -19 -9 0 -6 -4 7 -9 12 -5 46 -7 75 -5 43 3 53 7 53
22 0 10 -6 17 -12 16 -7 -2 -13 2 -13 8 0 6 7 8 16 5 26 -10 37 5 15 21 -12 8
-21 20 -21 26 0 7 4 6 11 -3 9 -13 10 -13 6 0 -2 8 -10 14 -16 12 -6 -1 -14
12 -18 28 -10 53 -72 76 -130 48z m87 -18 c6 -11 15 -18 21 -15 5 4 9 3 9 -2
-1 -33 -59 -55 -102 -39 -22 8 -27 15 -22 31 13 45 75 61 94 25z m16 -135
c-11 -8 -27 -15 -35 -15 -9 1 -2 7 14 15 39 18 44 18 21 0z"/>
<path d="M3751 2334 c0 -11 3 -14 6 -6 3 7 2 16 -1 19 -3 4 -6 -2 -5 -13z"/>
<path d="M3739 1843 c-13 -16 -12 -17 4 -4 16 13 21 21 13 21 -2 0 -10 -8 -17
-17z"/>
<path d="M3619 1793 c-13 -16 -12 -17 4 -4 9 7 17 15 17 17 0 8 -8 3 -21 -13z"/>
<path d="M3509 1573 c-13 -16 -12 -17 4 -4 9 7 17 15 17 17 0 8 -8 3 -21 -13z"/>
<path d="M3250 1319 l-35 -31 32 22 c29 19 50 40 41 40 -2 0 -19 -14 -38 -31z"/>
<path d="M3244 1948 l-19 -23 25 20 c14 11 27 21 29 22 2 2 0 3 -6 3 -5 0 -18
-10 -29 -22z"/>
<path d="M3188 1896 c-10 -7 -18 -17 -18 -21 0 -4 6 -2 13 4 8 6 16 8 19 5 3
-2 8 2 11 11 8 18 -2 19 -25 1z"/>
<path d="M3100 1820 c-14 -12 -40 -27 -58 -35 -18 -8 -31 -19 -27 -25 3 -5 1
-10 -4 -10 -6 0 -11 -5 -11 -10 0 -22 79 33 119 83 18 22 12 21 -19 -3z"/>
<path d="M2868 1513 c7 -3 16 -2 19 1 4 3 -2 6 -13 5 -11 0 -14 -3 -6 -6z"/>
<path d="M2865 1415 c-26 -18 -55 -31 -64 -28 -13 4 -13 3 -2 -5 11 -8 10 -11
-6 -16 -12 -4 -43 -27 -69 -52 -35 -32 -40 -40 -19 -28 28 17 96 65 140 100
11 8 31 18 45 20 14 3 36 13 48 22 l22 17 -23 1 c-13 1 -45 -13 -72 -31z"/>
<path d="M755 3751 c-3 -5 2 -17 11 -25 21 -21 22 -20 16 9 -4 25 -16 32 -27
16z"/>
<path d="M3470 2432 c0 -4 16 -6 35 -4 19 2 35 6 35 8 0 2 -16 4 -35 4 -19 0
-35 -4 -35 -8z"/>
</g>
</svg>
